<svg width="20" height="20" viewBox="0 0 20 20" fill="none" xmlns="http://www.w3.org/2000/svg">
<g clip-path="url(#clip0_11_81)">
<path d="M13.5312 6.4657L12.0281 10.9742C11.9463 11.2196 11.8084 11.4427 11.6255 11.6256C11.4425 11.8086 11.2195 11.9464 10.9741 12.0282L6.46558 13.5313L7.96868 9.02281C8.05049 8.77737 8.18832 8.55434 8.37127 8.37139C8.55421 8.18845 8.77724 8.05061 9.02269 7.96881L13.5312 6.4657Z" stroke="#171717" stroke-width="1.66642" stroke-linecap="round" stroke-linejoin="round"/>
<path d="M9.99859 18.3306C14.6003 18.3306 18.3307 14.6002 18.3307 9.9985C18.3307 5.39681 14.6003 1.66641 9.99859 1.66641C5.3969 1.66641 1.6665 5.39681 1.6665 9.9985C1.6665 14.6002 5.3969 18.3306 9.99859 18.3306Z" stroke="#171717" stroke-width="1.66642" stroke-linecap="round" stroke-linejoin="round"/>
</g>
<defs>
<clipPath id="clip0_11_81">
<rect width="19.997" height="19.997" fill="white"/>
</clipPath>
</defs>
</svg>
